<svg xmlns="http://www.w3.org/2000/svg" width="24" height="28" viewBox="0 0 24 28">
    <g fill="#99BB72" fill-rule="evenodd">
        <path d="M11.502 16c.824 0 1.498-.799 1.498-1.782V1.782C13 .797 12.326 0 11.502 0 10.671 0 10 .797 10 1.782v12.436C10 15.2 10.67 16 11.502 16"/>
        <path d="M12.005 28C18.618 28 24 22.614 24 15.993c0-3.785-1.818-7.395-4.875-9.652a1.73 1.73 0 0 0-2.421.36 1.737 1.737 0 0 0 .362 2.428 8.459 8.459 0 0 1 3.469 6.864c0 4.706-3.829 8.538-8.53 8.538-4.71 0-8.536-3.832-8.536-8.538A8.459 8.459 0 0 1 6.935 9.13a1.73 1.73 0 0 0 .361-2.425 1.73 1.73 0 0 0-2.422-.364A12.063 12.063 0 0 0 0 15.993C0 22.613 5.386 28 12.005 28"/>
    </g>
</svg>
