<svg xmlns="http://www.w3.org/2000/svg" xmlns:xlink="http://www.w3.org/1999/xlink" width="60" height="54" viewBox="0 0 60 54">
    <defs>
        <path id="a" d="M0 0h60v70H0z"/>
        <path id="c" d="M35.42 38.102h-3.847v3.826h-3.385v-3.826h-3.846v-3.367h3.846V30.91h3.385v3.826h3.847v3.367zm24.327 15.164c-.092-1.682-.609-3.114-.609-3.114s-6.426-18.513-7.311-21.011c-.887-2.5-2.198-3.6-3.287-4.079-1.089-.477-3.598-.331-4.395-.33-2.306.005-4.595 2.866-7.992 2.866h-5.947c-2.479-2.997-5.635-8.075-4.567-10.397.481-1.045 1.909-1.575 4.241-1.575 3.156 0 5.174-.908 5.997-2.697C37.883 8.565 31.36.864 30.61 0l-1.46 1.254c2.52 2.906 6.099 8.427 4.97 10.876-.48 1.046-1.907 1.576-4.24 1.576-3.156 0-5.174.907-5.997 2.697-1.512 3.288 1.818 8.47 3.873 11.195h-4.149c-3.397 0-5.686-2.86-7.992-2.866-.796-.001-3.305-.147-4.394.33-1.09.48-2.4 1.58-3.288 4.079C7.05 31.639.624 50.152.624 50.152s-.517 1.432-.61 3.114c-.092 1.68.24 3.609 1.94 4.6 1.697.992 2.99 1.23 3.995 1.102 1.007-.13 1.728-.624 2.281-1.102.554-.478 7.238-7.787 7.238-7.787s.763-1.128 2.391-2.256c.269-.185.563-.37.879-.552a4.867 4.867 0 0 0 3.019 1.044 4.873 4.873 0 0 0 4.394-2.747h7.458a4.876 4.876 0 0 0 4.395 2.747 4.87 4.87 0 0 0 3.02-1.044c.315.181.61.367.877.552 1.63 1.128 2.393 2.256 2.393 2.256s6.684 7.31 7.237 7.787c.554.478 1.273.973 2.28 1.102 1.006.129 2.299-.11 3.997-1.102 1.7-.991 2.031-2.92 1.939-4.6z"/>
    </defs>
    <g fill="none" fill-rule="evenodd">
        <mask id="b" fill="#fff">
            <use xlink:href="#a"/>
        </mask>
        <g mask="url(#b)">
            <use fill="#FFF" transform="translate(0 -5)" xlink:href="#c"/>
        </g>
    </g>
</svg>
