<svg xmlns="http://www.w3.org/2000/svg" width="57" height="461" viewBox="0 0 57 461">
    <g fill="none" fill-rule="evenodd">
        <path stroke="#99BB72" stroke-linecap="square" stroke-width="2" d="M29.25 16v341c0 4.395-3.477 7.168-3.477 9.967 0 2.798 6.193 12.274 6.193 18.185 0 5.912-8.68 5.414-8.68 10.355 0 3.72.201 4.121 5.344 10.482"/>
        <path fill="#99BB72" d="M33.444 441.165H29.81v3.632h-3.196v-3.632h-3.631v-3.196h3.631v-3.632h3.196v3.632h3.634v3.196zm22.968 14.392a11.695 11.695 0 0 0-.575-2.955s-6.067-17.572-6.903-19.943c-.837-2.372-2.075-3.417-3.103-3.87-1.029-.454-3.397-.316-4.15-.314-2.177.004-4.339 2.72-7.546 2.72H28.52c-2.34-2.845-5.321-7.665-4.312-9.868.454-.993 1.802-1.496 4.004-1.496 2.98 0 4.885-.861 5.662-2.56C35.77 413.13 29.61 405.82 28.902 405l-1.378 1.19c2.379 2.758 5.758 7.999 4.693 10.324-.454.992-1.801 1.495-4.005 1.495-2.98 0-4.884.861-5.661 2.56-1.427 3.12 1.717 8.04 3.656 10.626H22.29c-3.207 0-5.368-2.716-7.546-2.72-.752-.002-3.12-.14-4.149.313-1.029.454-2.266 1.5-3.103 3.871-.837 2.37-6.903 19.943-6.903 19.943s-.489 1.36-.576 2.955c-.087 1.595.227 3.426 1.83 4.366 1.605.942 2.825 1.169 3.774 1.047.95-.123 1.631-.593 2.154-1.047.523-.453 6.833-7.39 6.833-7.39s.72-1.071 2.258-2.141c.254-.177.532-.353.83-.524a4.58 4.58 0 0 0 2.85.99c1.271 0 2.421-.515 3.254-1.347.365-.364.669-.79.895-1.26h7.042c.229.47.531.896.896 1.26a4.59 4.59 0 0 0 3.254 1.348 4.583 4.583 0 0 0 2.851-.991c.298.171.576.347.829.524 1.539 1.07 2.259 2.14 2.259 2.14s6.31 6.938 6.833 7.391c.523.454 1.202.924 2.153 1.047.95.122 2.17-.105 3.774-1.047 1.604-.94 1.917-2.771 1.83-4.366z"/>
        <circle cx="29" cy="8" r="7" stroke="#99BB72" stroke-width="2"/>
    </g>
</svg>
